<svg width="18" height="18" viewBox="0 0 18 18" fill="none" xmlns="http://www.w3.org/2000/svg">
<path d="M9 13.5C9.15 13.5 9.26667 13.4583 9.35 13.375C9.45 13.275 9.5 13.15 9.5 13V8.5C9.5 8.36667 9.45 8.25 9.35 8.15C9.25 8.05 9.13333 8 9 8C8.85 8 8.725 8.05 8.625 8.15C8.54167 8.25 8.5 8.36667 8.5 8.5V13C8.5 13.15 8.55 13.275 8.65 13.375C8.75 13.4583 8.86667 13.5 9 13.5ZM9 6.575C9.16667 6.575 9.30833 6.51667 9.425 6.4C9.55833 6.28333 9.625 6.13333 9.625 5.95C9.625 5.78333 9.55833 5.64167 9.425 5.525C9.30833 5.40833 9.16667 5.35 9 5.35C8.83333 5.35 8.68333 5.40833 8.55 5.525C8.43333 5.64167 8.375 5.78333 8.375 5.95C8.375 6.13333 8.43333 6.28333 8.55 6.4C8.68333 6.51667 8.83333 6.575 9 6.575ZM9 18C7.75 18 6.575 17.7667 5.475 17.3C4.39167 16.8167 3.44167 16.175 2.625 15.375C1.825 14.5583 1.18333 13.6083 0.7 12.525C0.233333 11.425 0 10.25 0 9C0 7.75 0.233333 6.58333 0.7 5.5C1.18333 4.4 1.825 3.45 2.625 2.65C3.44167 1.83333 4.39167 1.19167 5.475 0.724999C6.575 0.241665 7.75 -1.43051e-06 9 -1.43051e-06C10.25 -1.43051e-06 11.4167 0.241665 12.5 0.724999C13.6 1.19167 14.55 1.83333 15.35 2.65C16.1667 3.45 16.8083 4.4 17.275 5.5C17.7583 6.58333 18 7.75 18 9C18 10.25 17.7583 11.425 17.275 12.525C16.8083 13.6083 16.1667 14.5583 15.35 15.375C14.55 16.175 13.6 16.8167 12.5 17.3C11.4167 17.7667 10.25 18 9 18ZM9 17C11.2333 17 13.125 16.225 14.675 14.675C16.225 13.125 17 11.2333 17 9C17 6.76667 16.225 4.875 14.675 3.325C13.125 1.775 11.2333 0.999999 9 0.999999C6.76667 0.999999 4.875 1.775 3.325 3.325C1.775 4.875 1 6.76667 1 9C1 11.2333 1.775 13.125 3.325 14.675C4.875 16.225 6.76667 17 9 17Z" fill="white"/>
</svg>
