<svg width="18" height="19" viewBox="0 0 18 19" fill="none" xmlns="http://www.w3.org/2000/svg">
<path d="M15.4252 18.8749C15.3085 18.8749 15.2002 18.8582 15.1002 18.8249C15.0169 18.7916 14.9335 18.7332 14.8502 18.6499L9.8752 13.6749C9.7752 13.5916 9.70853 13.5082 9.6752 13.4249C9.64186 13.3249 9.6252 13.2166 9.6252 13.0999C9.6252 12.9999 9.64186 12.9082 9.6752 12.8249C9.70853 12.7249 9.7752 12.6332 9.8752 12.5499L11.5252 10.8749C11.6085 10.7916 11.6919 10.7332 11.7752 10.6999C11.8752 10.6666 11.9835 10.6499 12.1002 10.6499C12.2002 10.6499 12.2919 10.6666 12.3752 10.6999C12.4752 10.7332 12.5669 10.7916 12.6502 10.8749L17.6502 15.8749C17.7335 15.9582 17.7919 16.0499 17.8252 16.1499C17.8585 16.2332 17.8752 16.3249 17.8752 16.4249C17.8752 16.5416 17.8585 16.6499 17.8252 16.7499C17.7919 16.8332 17.7335 16.9166 17.6502 16.9999L15.9752 18.6499C15.8919 18.7332 15.8002 18.7916 15.7002 18.8249C15.6169 18.8582 15.5252 18.8749 15.4252 18.8749ZM15.4252 17.8249L16.8252 16.4249L12.1002 11.7249L10.7002 13.1249L15.4252 17.8249ZM2.4502 18.8749C2.3502 18.8749 2.2502 18.8582 2.1502 18.8249C2.06686 18.7916 1.98353 18.7332 1.9002 18.6499L0.225195 16.9999C0.141862 16.9166 0.0835289 16.8332 0.0501956 16.7499C0.0168623 16.6499 0.000195622 16.5416 0.000195622 16.4249C0.000195622 16.3249 0.0168623 16.2249 0.0501956 16.1249C0.0835289 16.0249 0.141862 15.9332 0.225195 15.8499L5.3752 10.6999H7.4752L8.2252 9.9249L4.0002 5.6749H2.5752L0.0501956 3.1499L2.1752 1.0249L4.7002 3.5499V4.9749L8.9502 9.2249L11.9502 6.1999L10.1252 4.3499L11.2502 3.2249H8.9752L8.5752 2.8249L11.4002 -9.82285e-05L11.8002 0.399901V2.6749L12.9252 1.5499L16.9002 5.4749C17.1502 5.70823 17.3335 5.9749 17.4502 6.2749C17.5669 6.5749 17.6252 6.89157 17.6252 7.2249C17.6252 7.4749 17.5835 7.71657 17.5002 7.9499C17.4335 8.18323 17.3335 8.3999 17.2002 8.5999L15.1502 6.5499L13.7252 7.9749L12.6502 6.8999L8.1502 11.3999V13.5249L3.0252 18.6499C2.94186 18.7332 2.8502 18.7916 2.7502 18.8249C2.66686 18.8582 2.56686 18.8749 2.4502 18.8749ZM2.4502 17.7999L7.3752 12.8749V11.4749H5.9752L1.0502 16.3999L2.4502 17.7999ZM2.4502 17.7999L1.0502 16.3999L1.7752 17.0999L2.4502 17.7999ZM15.4252 17.8249L16.8252 16.4249L15.4252 17.8249Z" fill="white"/>
</svg>
