<svg width="16" height="16" viewBox="0 0 16 16" fill="none" xmlns="http://www.w3.org/2000/svg">
<path d="M1.625 16C1.15833 16 0.766667 15.85 0.45 15.55C0.15 15.2333 1.19209e-07 14.8417 1.19209e-07 14.375V1.625C1.19209e-07 1.15833 0.15 0.774999 0.45 0.474999C0.766667 0.158332 1.15833 -9.53674e-07 1.625 -9.53674e-07H14.375C14.8417 -9.53674e-07 15.225 0.158332 15.525 0.474999C15.8417 0.774999 16 1.15833 16 1.625V14.375C16 14.8417 15.8417 15.2333 15.525 15.55C15.225 15.85 14.8417 16 14.375 16H1.625ZM1.625 15H14.375C14.5417 15 14.6833 14.9417 14.8 14.825C14.9333 14.6917 15 14.5417 15 14.375V1.625C15 1.45833 14.9333 1.31667 14.8 1.2C14.6833 1.06667 14.5417 1 14.375 1H1.625C1.45833 1 1.30833 1.06667 1.175 1.2C1.05833 1.31667 1 1.45833 1 1.625V14.375C1 14.5417 1.05833 14.6917 1.175 14.825C1.30833 14.9417 1.45833 15 1.625 15ZM1 15C1 15 1 14.9417 1 14.825C1 14.6917 1 14.5417 1 14.375V1.625C1 1.45833 1 1.31667 1 1.2C1 1.06667 1 1 1 1C1 1 1 1.06667 1 1.2C1 1.31667 1 1.45833 1 1.625V14.375C1 14.5417 1 14.6917 1 14.825C1 14.9417 1 15 1 15ZM4.3 12.5H11.85C12.0167 12.5 12.1333 12.4333 12.2 12.3C12.2667 12.15 12.2583 12 12.175 11.85L10.15 9.15C10.0667 9.03333 9.95833 8.975 9.825 8.975C9.69167 8.975 9.58333 9.03333 9.5 9.15L7.2 12.05L5.775 10.325C5.69167 10.225 5.59167 10.175 5.475 10.175C5.35833 10.175 5.25 10.225 5.15 10.325L4 11.85C3.9 12 3.88333 12.15 3.95 12.3C4.03333 12.4333 4.15 12.5 4.3 12.5ZM4.5 5.5C4.78333 5.5 5.01667 5.40833 5.2 5.225C5.4 5.025 5.5 4.78333 5.5 4.5C5.5 4.21667 5.4 3.98333 5.2 3.8C5.01667 3.6 4.78333 3.5 4.5 3.5C4.21667 3.5 3.975 3.6 3.775 3.8C3.59167 3.98333 3.5 4.21667 3.5 4.5C3.5 4.78333 3.59167 5.025 3.775 5.225C3.975 5.40833 4.21667 5.5 4.5 5.5Z" fill="white"/>
</svg>
