<svg width="17" height="17" viewBox="0 0 17 17" fill="none" xmlns="http://www.w3.org/2000/svg">
<path d="M2.25 16.9C1.48333 16.9 0.916667 16.75 0.55 16.45C0.183334 16.1333 2.38419e-07 15.6666 2.38419e-07 15.05C2.38419e-07 14.2333 0.341667 13.7166 1.025 13.5C1.725 13.2666 2.54167 13.15 3.475 13.15H3.95V11.95C3.95 11.4833 3.94167 11.1 3.925 10.8C3.90833 10.4833 3.85833 10.225 3.775 10.025C3.70833 9.84162 3.625 9.70828 3.525 9.62495C3.44167 9.54162 3.325 9.49995 3.175 9.49995C3.04167 9.49995 2.925 9.52495 2.825 9.57495C2.725 9.60828 2.64167 9.66662 2.575 9.74995C2.50833 9.81662 2.46667 9.89162 2.45 9.97495C2.43333 10.0416 2.44167 10.1166 2.475 10.2C2.55833 10.35 2.65 10.5 2.75 10.65C2.86667 10.8 2.925 10.975 2.925 11.175C2.925 11.525 2.8 11.825 2.55 12.075C2.31667 12.325 2.025 12.45 1.675 12.45C1.325 12.45 1.025 12.325 0.775 12.075C0.525 11.825 0.4 11.525 0.4 11.175C0.4 10.8083 0.483334 10.5 0.65 10.25C0.816667 9.99995 1.04167 9.80828 1.325 9.67495C1.625 9.52495 1.96667 9.42495 2.35 9.37495C2.73333 9.32495 3.14167 9.29995 3.575 9.29995C4.775 9.29995 5.60833 9.51662 6.075 9.94995C6.54167 10.3666 6.775 11.1166 6.775 12.2V15.325C6.775 15.5916 6.80833 15.7916 6.875 15.925C6.94167 16.0583 7.05 16.125 7.2 16.125C7.36667 16.125 7.5 15.9916 7.6 15.725C7.7 15.4583 7.76667 15.0583 7.8 14.525H8.05C8 15.4083 7.825 16.025 7.525 16.375C7.24167 16.725 6.75833 16.9 6.075 16.9C5.475 16.9 5 16.8083 4.65 16.625C4.3 16.4416 4.08333 16.1583 4 15.775C3.85 16.175 3.63333 16.4666 3.35 16.65C3.08333 16.8166 2.71667 16.9 2.25 16.9ZM10.125 16.9C9.825 16.9 9.59167 16.7833 9.425 16.55C9.275 16.3166 9.25833 16.0666 9.375 15.8L11.5 10.125C11.6 9.87495 11.7583 9.67495 11.975 9.52495C12.1917 9.37495 12.4333 9.29995 12.7 9.29995C12.9667 9.29995 13.2083 9.37495 13.425 9.52495C13.6417 9.67495 13.7917 9.87495 13.875 10.125L16.025 15.8C16.1417 16.0666 16.1167 16.3166 15.95 16.55C15.7833 16.7833 15.55 16.9 15.25 16.9C15.0833 16.9 14.925 16.8583 14.775 16.775C14.6417 16.675 14.5417 16.5416 14.475 16.375L14.05 15.15H11.35L10.925 16.375C10.8583 16.525 10.7583 16.65 10.625 16.75C10.4917 16.85 10.325 16.9 10.125 16.9ZM3.275 16.3C3.475 16.3 3.63333 16.1583 3.75 15.875C3.88333 15.575 3.95 15.225 3.95 14.825V13.4C3.58333 13.4 3.30833 13.5083 3.125 13.725C2.95833 13.9416 2.875 14.3 2.875 14.8V15.025C2.875 15.5416 2.9 15.8833 2.95 16.05C3.01667 16.2166 3.125 16.3 3.275 16.3ZM11.9 13.65H13.525L12.7 11.25L11.9 13.65ZM11.1 7.62495C10.4333 7.62495 9.89167 7.39162 9.475 6.92495C9.075 6.44162 8.875 5.79995 8.875 4.99995C8.875 3.54995 9.34167 2.35828 10.275 1.42495C11.2083 0.47495 12.4 -5.00679e-05 13.85 -5.00679e-05C14.45 -5.00679e-05 14.9333 0.0666165 15.3 0.19995C15.6667 0.333283 15.85 0.49995 15.85 0.699951C15.85 0.783284 15.8333 0.866617 15.8 0.94995C15.7667 1.03328 15.7167 1.11662 15.65 1.19995C15.5667 1.29995 15.475 1.37495 15.375 1.42495C15.275 1.45828 15.175 1.45828 15.075 1.42495C14.875 1.35828 14.6417 1.30828 14.375 1.27495C14.125 1.22495 13.9 1.19995 13.7 1.19995C12.7 1.19995 11.8917 1.54162 11.275 2.22495C10.675 2.90828 10.375 3.79995 10.375 4.89995C10.375 5.21662 10.425 5.54995 10.525 5.89995C10.6417 6.23328 10.9 6.39995 11.3 6.39995C11.4333 6.39995 11.575 6.36662 11.725 6.29995C11.875 6.23328 12.0167 6.13328 12.15 5.99995C12.3833 5.74995 12.6 5.33328 12.8 4.74995C13.0167 4.14995 13.2083 3.42495 13.375 2.57495C13.4083 2.39162 13.4833 2.25828 13.6 2.17495C13.7167 2.09162 13.8833 2.04995 14.1 2.04995C14.35 2.04995 14.5417 2.12495 14.675 2.27495C14.8083 2.40828 14.8417 2.57495 14.775 2.77495C14.6083 3.37495 14.4833 3.89995 14.4 4.34995C14.3333 4.79995 14.3 5.20828 14.3 5.57495C14.3 5.85828 14.3333 6.06662 14.4 6.19995C14.4833 6.31662 14.6 6.37495 14.75 6.37495C14.9167 6.37495 15.075 6.31662 15.225 6.19995C15.375 6.08328 15.5833 5.87495 15.85 5.57495C15.8833 5.52495 15.9833 5.47495 16.15 5.42495C16.2667 5.42495 16.35 5.46662 16.4 5.54995C16.4667 5.63328 16.5 5.75828 16.5 5.92495C16.5 6.32495 16.275 6.70828 15.825 7.07495C15.375 7.42495 14.9 7.59995 14.4 7.59995C14.0333 7.59995 13.7167 7.49995 13.45 7.29995C13.2 7.09995 13.025 6.82495 12.925 6.47495C12.7083 6.84162 12.4417 7.12495 12.125 7.32495C11.825 7.52495 11.4833 7.62495 11.1 7.62495ZM0.85 7.59995V2.94995C0.85 2.11662 1.13333 1.41662 1.7 0.84995C2.28333 0.283283 2.98333 -5.00679e-05 3.8 -5.00679e-05C4.63333 -5.00679e-05 5.33333 0.283283 5.9 0.84995C6.48333 1.41662 6.775 2.11662 6.775 2.94995V7.59995H5.075V5.89995H2.55V7.59995H0.85ZM2.55 4.22495H5.075V2.94995C5.075 2.59995 4.95 2.29995 4.7 2.04995C4.45 1.79995 4.15 1.67495 3.8 1.67495C3.45 1.67495 3.15 1.79995 2.9 2.04995C2.66667 2.29995 2.55 2.59995 2.55 2.94995V4.22495Z" fill="white"/>
</svg>
