<svg width="24" height="24" viewBox="0 0 24 24" fill="none" xmlns="http://www.w3.org/2000/svg">
<path d="M4.625 20C4.15833 20 3.76667 19.85 3.45 19.55C3.15 19.2333 3 18.8417 3 18.375V5.625C3 5.15833 3.15 4.775 3.45 4.475C3.76667 4.15833 4.15833 4 4.625 4H19.375C19.8417 4 20.225 4.15833 20.525 4.475C20.8417 4.775 21 5.15833 21 5.625V18.375C21 18.8417 20.8417 19.2333 20.525 19.55C20.225 19.85 19.8417 20 19.375 20H4.625ZM4.625 19H19.375C19.5417 19 19.6833 18.9417 19.8 18.825C19.9333 18.6917 20 18.5417 20 18.375V5.625C20 5.45833 19.9333 5.31667 19.8 5.2C19.6833 5.06667 19.5417 5 19.375 5H4.625C4.45833 5 4.30833 5.06667 4.175 5.2C4.05833 5.31667 4 5.45833 4 5.625V18.375C4 18.5417 4.05833 18.6917 4.175 18.825C4.30833 18.9417 4.45833 19 4.625 19ZM7.275 12.5C7.125 12.5 7 12.4583 6.9 12.375C6.81667 12.275 6.775 12.15 6.775 12V8.275C6.775 8.125 6.81667 8.00833 6.9 7.925C7 7.825 7.125 7.775 7.275 7.775H9.65C9.8 7.775 9.91667 7.825 10 7.925C10.1 8.00833 10.15 8.125 10.15 8.275V12C10.15 12.15 10.1 12.275 10 12.375C9.91667 12.4583 9.8 12.5 9.65 12.5H7.275ZM7.275 16.225C7.125 16.225 7 16.1833 6.9 16.1C6.81667 16 6.775 15.875 6.775 15.725C6.775 15.5917 6.81667 15.475 6.9 15.375C7 15.275 7.125 15.225 7.275 15.225H16.725C16.875 15.225 16.9917 15.275 17.075 15.375C17.175 15.475 17.225 15.5917 17.225 15.725C17.225 15.875 17.175 16 17.075 16.1C16.9917 16.1833 16.875 16.225 16.725 16.225H7.275ZM13.05 12.5C12.9 12.5 12.775 12.4583 12.675 12.375C12.5917 12.275 12.55 12.15 12.55 12C12.55 11.85 12.5917 11.7333 12.675 11.65C12.775 11.55 12.9 11.5 13.05 11.5H16.725C16.875 11.5 16.9917 11.55 17.075 11.65C17.175 11.7333 17.225 11.85 17.225 12C17.225 12.15 17.175 12.275 17.075 12.375C16.9917 12.4583 16.875 12.5 16.725 12.5H13.05ZM13.05 8.775C12.9 8.775 12.775 8.725 12.675 8.625C12.5917 8.525 12.55 8.40833 12.55 8.275C12.55 8.125 12.5917 8.00833 12.675 7.925C12.775 7.825 12.9 7.775 13.05 7.775H16.725C16.875 7.775 16.9917 7.825 17.075 7.925C17.175 8.00833 17.225 8.125 17.225 8.275C17.225 8.40833 17.175 8.525 17.075 8.625C16.9917 8.725 16.875 8.775 16.725 8.775H13.05Z" fill="#757575"/>
</svg>
