<svg width="18" height="16" viewBox="0 0 18 16" fill="none" xmlns="http://www.w3.org/2000/svg">
<path d="M4 12.5H9C9.15 12.5 9.26667 12.4583 9.35 12.375C9.45 12.275 9.5 12.15 9.5 12C9.5 11.85 9.45 11.7333 9.35 11.65C9.26667 11.55 9.15 11.5 9 11.5H4C3.85 11.5 3.725 11.55 3.625 11.65C3.54167 11.7333 3.5 11.85 3.5 12C3.5 12.15 3.54167 12.275 3.625 12.375C3.725 12.4583 3.85 12.5 4 12.5ZM14 3.5C13.85 3.5 13.725 3.55 13.625 3.65C13.5417 3.73333 13.5 3.85 13.5 4V12C13.5 12.15 13.5417 12.275 13.625 12.375C13.725 12.4583 13.85 12.5 14 12.5C14.15 12.5 14.2667 12.4583 14.35 12.375C14.45 12.275 14.5 12.15 14.5 12V4C14.5 3.85 14.45 3.73333 14.35 3.65C14.2667 3.55 14.15 3.5 14 3.5ZM4 8.5H9C9.15 8.5 9.26667 8.45833 9.35 8.375C9.45 8.275 9.5 8.15 9.5 8C9.5 7.85 9.45 7.73333 9.35 7.65C9.26667 7.55 9.15 7.5 9 7.5H4C3.85 7.5 3.725 7.55 3.625 7.65C3.54167 7.73333 3.5 7.85 3.5 8C3.5 8.15 3.54167 8.275 3.625 8.375C3.725 8.45833 3.85 8.5 4 8.5ZM4 4.5H9C9.15 4.5 9.26667 4.45833 9.35 4.375C9.45 4.275 9.5 4.15 9.5 4C9.5 3.85 9.45 3.73333 9.35 3.65C9.26667 3.55 9.15 3.5 9 3.5H4C3.85 3.5 3.725 3.55 3.625 3.65C3.54167 3.73333 3.5 3.85 3.5 4C3.5 4.15 3.54167 4.275 3.625 4.375C3.725 4.45833 3.85 4.5 4 4.5ZM1.625 16C1.15833 16 0.766667 15.85 0.45 15.55C0.15 15.2333 0 14.8417 0 14.375V1.625C0 1.15833 0.15 0.774999 0.45 0.474999C0.766667 0.158332 1.15833 -9.53674e-07 1.625 -9.53674e-07H16.375C16.8417 -9.53674e-07 17.225 0.158332 17.525 0.474999C17.8417 0.774999 18 1.15833 18 1.625V14.375C18 14.8417 17.8417 15.2333 17.525 15.55C17.225 15.85 16.8417 16 16.375 16H1.625ZM1.625 15H16.375C16.5417 15 16.6833 14.9417 16.8 14.825C16.9333 14.6917 17 14.5417 17 14.375V1.625C17 1.45833 16.9333 1.31667 16.8 1.2C16.6833 1.06667 16.5417 1 16.375 1H1.625C1.45833 1 1.30833 1.06667 1.175 1.2C1.05833 1.31667 1 1.45833 1 1.625V14.375C1 14.5417 1.05833 14.6917 1.175 14.825C1.30833 14.9417 1.45833 15 1.625 15ZM1 15C1 15 1 14.9417 1 14.825C1 14.6917 1 14.5417 1 14.375V1.625C1 1.45833 1 1.31667 1 1.2C1 1.06667 1 1 1 1C1 1 1 1.06667 1 1.2C1 1.31667 1 1.45833 1 1.625V14.375C1 14.5417 1 14.6917 1 14.825C1 14.9417 1 15 1 15Z" fill="white"/>
</svg>
