<svg width="24" height="24" viewBox="0 0 24 24" fill="none" xmlns="http://www.w3.org/2000/svg">
<path d="M5 17.025V15.65C5 15.55 5.01667 15.4583 5.05 15.375C5.08333 15.275 5.14167 15.175 5.225 15.075L16.225 4.125C16.325 4.00833 16.4333 3.925 16.55 3.875C16.6833 3.825 16.8167 3.8 16.95 3.8C17.0833 3.8 17.2083 3.825 17.325 3.875C17.4417 3.925 17.5583 4.00833 17.675 4.125L18.7 5.15C18.8 5.26667 18.875 5.38333 18.925 5.5C18.975 5.61667 19 5.74167 19 5.875C19 6.00833 18.975 6.14167 18.925 6.275C18.875 6.39167 18.8 6.50833 18.7 6.625L7.725 17.575C7.64167 17.675 7.55 17.7417 7.45 17.775C7.36667 17.8083 7.26667 17.825 7.15 17.825H5.8C5.56667 17.825 5.375 17.75 5.225 17.6C5.075 17.45 5 17.2583 5 17.025ZM3 24C2.73333 24 2.5 23.9083 2.3 23.725C2.1 23.525 2 23.2833 2 23C2 22.7333 2.1 22.5 2.3 22.3C2.5 22.1 2.73333 22 3 22H21C21.2667 22 21.5 22.1 21.7 22.3C21.9 22.4833 22 22.7167 22 23C22 23.2667 21.9 23.5 21.7 23.7C21.5 23.9 21.2667 24 21 24H3ZM6 16.825H7.075L15.875 8.025L14.8 6.95L6 15.75V16.825Z" fill="#4D4D4D"/>
</svg>
