<svg width="84" height="84" viewBox="0 0 84 84" fill="none" xmlns="http://www.w3.org/2000/svg">
<path d="M41.9999 62.9999C43.1666 62.9999 44.1582 62.5916 44.9749 61.7749C45.7916 60.9582 46.1999 59.9666 46.1999 58.7999C46.1999 57.6332 45.7916 56.6416 44.9749 55.8249C44.1582 55.0082 43.1666 54.5999 41.9999 54.5999C40.8332 54.5999 39.8416 55.0082 39.0249 55.8249C38.2082 56.6416 37.7999 57.6332 37.7999 58.7999C37.7999 59.9666 38.2082 60.9582 39.0249 61.7749C39.8416 62.5916 40.8332 62.9999 41.9999 62.9999ZM38.8499 49.6124H45.2374C45.2374 47.4541 45.427 45.9228 45.8062 45.0187C46.1853 44.1145 47.1041 42.9624 48.5624 41.5624C50.6041 39.5791 52.0187 37.8874 52.8062 36.4874C53.5937 35.0874 53.9874 33.5416 53.9874 31.8499C53.9874 28.6416 52.8937 26.0312 50.7062 24.0187C48.5187 22.0062 45.7332 20.9999 42.3499 20.9999C39.3749 20.9999 36.7937 21.7874 34.6062 23.3624C32.4187 24.9374 30.8874 27.0666 30.0124 29.7499L35.6999 32.1124C36.2249 30.4791 37.0562 29.2103 38.1937 28.3062C39.3312 27.402 40.6582 26.9499 42.1749 26.9499C43.8082 26.9499 45.1499 27.4166 46.1999 28.3499C47.2499 29.2832 47.7749 30.5082 47.7749 32.0249C47.7749 33.3666 47.3228 34.5624 46.4187 35.6124C45.5145 36.6624 44.5082 37.6832 43.3999 38.6749C41.3582 40.5416 40.0895 42.0728 39.5937 43.2687C39.0978 44.4645 38.8499 46.5791 38.8499 49.6124ZM41.9999 75.5999C37.3916 75.5999 33.0457 74.7249 28.9624 72.9749C24.8791 71.2249 21.3062 68.8187 18.2437 65.7562C15.1812 62.6937 12.7749 59.1207 11.0249 55.0374C9.2749 50.9541 8.3999 46.6082 8.3999 41.9999C8.3999 37.3332 9.2749 32.9728 11.0249 28.9187C12.7749 24.8645 15.1812 21.3062 18.2437 18.2437C21.3062 15.1812 24.8791 12.7749 28.9624 11.0249C33.0457 9.2749 37.3916 8.3999 41.9999 8.3999C46.6666 8.3999 51.027 9.2749 55.0812 11.0249C59.1353 12.7749 62.6937 15.1812 65.7562 18.2437C68.8187 21.3062 71.2249 24.8645 72.9749 28.9187C74.7249 32.9728 75.5999 37.3332 75.5999 41.9999C75.5999 46.6082 74.7249 50.9541 72.9749 55.0374C71.2249 59.1207 68.8187 62.6937 65.7562 65.7562C62.6937 68.8187 59.1353 71.2249 55.0812 72.9749C51.027 74.7249 46.6666 75.5999 41.9999 75.5999ZM41.9999 69.2999C49.5832 69.2999 56.0291 66.6457 61.3374 61.3374C66.6457 56.0291 69.2999 49.5832 69.2999 41.9999C69.2999 34.4166 66.6457 27.9707 61.3374 22.6624C56.0291 17.3541 49.5832 14.6999 41.9999 14.6999C34.4166 14.6999 27.9707 17.3541 22.6624 22.6624C17.3541 27.9707 14.6999 34.4166 14.6999 41.9999C14.6999 49.5832 17.3541 56.0291 22.6624 61.3374C27.9707 66.6457 34.4166 69.2999 41.9999 69.2999Z" fill="#F16508"/>
</svg>
