<svg width="14" height="16" viewBox="0 0 14 16" fill="none" xmlns="http://www.w3.org/2000/svg">
<path d="M1 14.375H4.7V9.3C4.7 9.06667 4.775 8.875 4.925 8.725C5.075 8.575 5.26667 8.5 5.5 8.5H8.5C8.73333 8.5 8.925 8.575 9.075 8.725C9.225 8.875 9.3 9.06667 9.3 9.3V14.375H13V5.675C13 5.575 12.975 5.48333 12.925 5.4C12.8917 5.31667 12.8333 5.24167 12.75 5.175L7.375 1.125C7.25833 1.04167 7.13333 0.999999 7 0.999999C6.86667 0.999999 6.74167 1.04167 6.625 1.125L1.25 5.175C1.16667 5.24167 1.1 5.31667 1.05 5.4C1.01667 5.48333 1 5.575 1 5.675V14.375ZM2.38419e-07 14.375V5.675C2.38419e-07 5.425 0.0583336 5.18333 0.175 4.95C0.291667 4.71667 0.45 4.53333 0.65 4.4L6.025 0.324999C6.30833 0.108333 6.63333 -4.76837e-07 7 -4.76837e-07C7.36667 -4.76837e-07 7.69167 0.108333 7.975 0.324999L13.35 4.4C13.55 4.53333 13.7083 4.71667 13.825 4.95C13.9417 5.18333 14 5.425 14 5.675V14.375C14 14.6417 13.9 14.875 13.7 15.075C13.5 15.275 13.2667 15.375 13 15.375H9.125C8.89167 15.375 8.69167 15.3 8.525 15.15C8.375 14.9833 8.3 14.7917 8.3 14.575V9.5H5.7V14.575C5.7 14.7917 5.61667 14.9833 5.45 15.15C5.3 15.3 5.10833 15.375 4.875 15.375H1C0.733334 15.375 0.5 15.275 0.3 15.075C0.1 14.875 2.38419e-07 14.6417 2.38419e-07 14.375Z" fill="white"/>
</svg>
