<svg width="14" height="18" viewBox="0 0 14 18" fill="none" xmlns="http://www.w3.org/2000/svg">
<path d="M3.875 9.3H10.125C10.2583 9.3 10.375 9.25833 10.475 9.175C10.575 9.075 10.625 8.95 10.625 8.8C10.625 8.66667 10.575 8.55 10.475 8.45C10.375 8.35 10.2583 8.3 10.125 8.3H3.875C3.74167 8.3 3.625 8.35 3.525 8.45C3.425 8.55 3.375 8.66667 3.375 8.8C3.375 8.95 3.425 9.075 3.525 9.175C3.625 9.25833 3.74167 9.3 3.875 9.3ZM3.875 12.075H10.125C10.2583 12.075 10.375 12.0333 10.475 11.95C10.575 11.85 10.625 11.725 10.625 11.575C10.625 11.4417 10.575 11.325 10.475 11.225C10.375 11.125 10.2583 11.075 10.125 11.075H3.875C3.74167 11.075 3.625 11.125 3.525 11.225C3.425 11.325 3.375 11.4417 3.375 11.575C3.375 11.725 3.425 11.85 3.525 11.95C3.625 12.0333 3.74167 12.075 3.875 12.075ZM3.875 14.85H7.125C7.25833 14.85 7.375 14.8 7.475 14.7C7.575 14.6 7.625 14.4833 7.625 14.35C7.625 14.2 7.575 14.0833 7.475 14C7.375 13.9 7.25833 13.85 7.125 13.85H3.875C3.74167 13.85 3.625 13.9 3.525 14C3.425 14.0833 3.375 14.2 3.375 14.35C3.375 14.4833 3.425 14.6 3.525 14.7C3.625 14.8 3.74167 14.85 3.875 14.85ZM1.625 18C1.15833 18 0.766667 17.85 0.45 17.55C0.15 17.2333 2.38419e-07 16.8417 2.38419e-07 16.375V1.625C2.38419e-07 1.15833 0.15 0.774999 0.45 0.474998C0.766667 0.158332 1.15833 -1.43051e-06 1.625 -1.43051e-06H8.825C9.04167 -1.43051e-06 9.25 0.0416656 9.45 0.125C9.65 0.208333 9.825 0.324999 9.975 0.474998L13.525 4.025C13.675 4.175 13.7917 4.35 13.875 4.55C13.9583 4.75 14 4.95833 14 5.175V16.375C14 16.8417 13.8417 17.2333 13.525 17.55C13.225 17.85 12.8417 18 12.375 18H1.625ZM13 5H10.2C9.86667 5 9.58333 4.88333 9.35 4.65C9.11667 4.41667 9 4.13333 9 3.8V0.999999H1.625C1.45833 0.999999 1.30833 1.06667 1.175 1.2C1.05833 1.31667 1 1.45833 1 1.625V16.375C1 16.5417 1.05833 16.6917 1.175 16.825C1.30833 16.9417 1.45833 17 1.625 17H12.375C12.5417 17 12.6833 16.9417 12.8 16.825C12.9333 16.6917 13 16.5417 13 16.375V5ZM1 0.999999V5V0.999999V5V16.375C1 16.5417 1 16.6917 1 16.825C1 16.9417 1 17 1 17C1 17 1 16.9417 1 16.825C1 16.6917 1 16.5417 1 16.375V1.625C1 1.45833 1 1.31667 1 1.2C1 1.06667 1 0.999999 1 0.999999Z" fill="white"/>
</svg>
