<svg width="18" height="18" viewBox="0 0 18 18" fill="none" xmlns="http://www.w3.org/2000/svg">
<path d="M8.5 9.5V12.125C8.5 12.2583 8.54167 12.375 8.625 12.475C8.725 12.575 8.85 12.625 9 12.625C9.15 12.625 9.26667 12.575 9.35 12.475C9.45 12.375 9.5 12.2583 9.5 12.125V9.5H12.125C12.2583 9.5 12.375 9.45833 12.475 9.375C12.575 9.275 12.625 9.15 12.625 9C12.625 8.85 12.575 8.73333 12.475 8.65C12.375 8.55 12.2583 8.5 12.125 8.5H9.5V5.875C9.5 5.74167 9.45 5.625 9.35 5.525C9.26667 5.425 9.15 5.375 9 5.375C8.85 5.375 8.725 5.425 8.625 5.525C8.54167 5.625 8.5 5.74167 8.5 5.875V8.5H5.875C5.74167 8.5 5.625 8.55 5.525 8.65C5.425 8.73333 5.375 8.85 5.375 9C5.375 9.15 5.425 9.275 5.525 9.375C5.625 9.45833 5.74167 9.5 5.875 9.5H8.5ZM9 18C8.78333 18 8.575 17.9667 8.375 17.9C8.175 17.8167 7.99167 17.6917 7.825 17.525L0.5 10.175C0.333333 10.0083 0.208333 9.825 0.125 9.625C0.0416667 9.425 0 9.21667 0 9C0 8.8 0.0416667 8.6 0.125 8.4C0.208333 8.18333 0.333333 8 0.5 7.85L7.825 0.5C8.00833 0.333333 8.19167 0.208333 8.375 0.125C8.575 0.0416656 8.78333 -1.43051e-06 9 -1.43051e-06C9.2 -1.43051e-06 9.4 0.0416656 9.6 0.125C9.81667 0.208333 10 0.333333 10.15 0.5L17.5 7.85C17.6667 8.01667 17.7917 8.2 17.875 8.4C17.9583 8.6 18 8.8 18 9C18 9.21667 17.9583 9.425 17.875 9.625C17.7917 9.825 17.6667 10.0083 17.5 10.175L10.15 17.525C10 17.675 9.81667 17.7917 9.6 17.875C9.4 17.9583 9.2 18 9 18ZM9.45 16.8L16.775 9.475C16.8917 9.35833 16.95 9.2 16.95 9C16.95 8.8 16.8917 8.65 16.775 8.55L9.45 1.2C9.35 1.1 9.2 1.05 9 1.05C8.8 1.05 8.64167 1.1 8.525 1.2L1.2 8.55C1.1 8.65 1.05 8.8 1.05 9C1.05 9.2 1.1 9.35833 1.2 9.475L8.525 16.8C8.64167 16.9 8.8 16.95 9 16.95C9.2 16.95 9.35 16.9 9.45 16.8Z" fill="white"/>
</svg>
