<svg width="17" height="14" viewBox="0 0 17 14" fill="none" xmlns="http://www.w3.org/2000/svg">
<path d="M3.675 12.6H7.975C8.10833 12.6 8.21667 12.5584 8.3 12.475C8.38333 12.3917 8.425 12.2834 8.425 12.15V11.5C8.425 11.3667 8.38333 11.2584 8.3 11.175C8.21667 11.075 8.10833 11.025 7.975 11.025H3.675C3.54167 11.025 3.425 11.075 3.325 11.175C3.24167 11.2584 3.2 11.3667 3.2 11.5V12.15C3.2 12.2834 3.24167 12.3917 3.325 12.475C3.425 12.5584 3.54167 12.6 3.675 12.6ZM3.575 5.30005H8.075C8.175 5.30005 8.26667 5.25838 8.35 5.17505C8.45 5.07505 8.5 4.96671 8.5 4.85005C8.5 4.75005 8.45 4.65838 8.35 4.57505C8.26667 4.47505 8.175 4.42505 8.075 4.42505H3.575C3.45833 4.42505 3.35 4.47505 3.25 4.57505C3.16667 4.65838 3.125 4.75005 3.125 4.85005C3.125 4.96671 3.16667 5.07505 3.25 5.17505C3.35 5.25838 3.45833 5.30005 3.575 5.30005ZM3.575 3.17505H8.075C8.175 3.17505 8.26667 3.13338 8.35 3.05005C8.45 2.95005 8.5 2.85005 8.5 2.75005C8.5 2.63338 8.45 2.53338 8.35 2.45005C8.26667 2.35005 8.175 2.30005 8.075 2.30005H3.575C3.45833 2.30005 3.35 2.35005 3.25 2.45005C3.16667 2.53338 3.125 2.63338 3.125 2.75005C3.125 2.85005 3.16667 2.95005 3.25 3.05005C3.35 3.13338 3.45833 3.17505 3.575 3.17505ZM11.625 6.00005V5.00005H13C13.1833 5.00005 13.3333 4.94172 13.45 4.82505C13.5667 4.70838 13.625 4.55838 13.625 4.37505V3.22505C13.625 3.04172 13.5667 2.89172 13.45 2.77505C13.3333 2.65838 13.1833 2.60005 13 2.60005H11.625V1.60005H13C13.45 1.60005 13.8333 1.75838 14.15 2.07505C14.4667 2.39171 14.625 2.77505 14.625 3.22505V3.30005H16.325C16.4583 3.30005 16.575 3.35005 16.675 3.45005C16.775 3.55005 16.825 3.66672 16.825 3.80005C16.825 3.95005 16.775 4.07505 16.675 4.17505C16.575 4.25838 16.4583 4.30005 16.325 4.30005H14.625V4.37505C14.625 4.82505 14.4667 5.20838 14.15 5.52505C13.8333 5.84171 13.45 6.00005 13 6.00005H11.625ZM7.825 10.025H6.825V6.60005H10C10.1833 6.60005 10.3333 6.54172 10.45 6.42505C10.5667 6.30838 10.625 6.16671 10.625 6.00005V1.60005C10.625 1.43338 10.5667 1.29172 10.45 1.17505C10.3333 1.05838 10.1833 1.00005 10 1.00005H3C2.45 1.00005 1.975 1.20005 1.575 1.60005C1.19167 1.98338 1 2.45005 1 3.00005V4.60005C1 5.15005 1.19167 5.62505 1.575 6.02505C1.975 6.40838 2.45 6.60005 3 6.60005H4.825V10.025H3.825V7.60005H3C2.18333 7.60005 1.475 7.30838 0.875 6.72505C0.291667 6.14172 0 5.43338 0 4.60005V3.00005C0 2.16671 0.291667 1.45838 0.875 0.875047C1.475 0.291714 2.18333 4.76837e-05 3 4.76837e-05H10C10.45 4.76837e-05 10.8333 0.158381 11.15 0.475048C11.4667 0.791714 11.625 1.16671 11.625 1.60005V6.00005C11.625 6.43338 11.4667 6.80838 11.15 7.12505C10.8333 7.44171 10.45 7.60005 10 7.60005H7.825V10.025ZM3.425 13.6C3.075 13.6 2.78333 13.4834 2.55 13.25C2.31667 13.0167 2.2 12.7334 2.2 12.4V11.25C2.2 10.9167 2.31667 10.6334 2.55 10.4C2.78333 10.15 3.075 10.025 3.425 10.025H8.225C8.55833 10.025 8.84167 10.15 9.075 10.4C9.30833 10.6334 9.425 10.9167 9.425 11.25V12.4C9.425 12.7334 9.30833 13.0167 9.075 13.25C8.84167 13.4834 8.55833 13.6 8.225 13.6H3.425ZM7.975 12.6H3.675C3.54167 12.6 3.425 12.6 3.325 12.6C3.24167 12.6 3.2 12.6 3.2 12.6C3.2 12.6 3.24167 12.6 3.325 12.6C3.425 12.6 3.54167 12.6 3.675 12.6H7.975C8.10833 12.6 8.21667 12.6 8.3 12.6C8.38333 12.6 8.425 12.6 8.425 12.6C8.425 12.6 8.38333 12.6 8.3 12.6C8.21667 12.6 8.10833 12.6 7.975 12.6Z" fill="white"/>
</svg>
