<svg width="20" height="14" viewBox="0 0 20 14" fill="none" xmlns="http://www.w3.org/2000/svg">
<path d="M10 13.4998C9.85 13.4998 9.70833 13.4831 9.575 13.4498C9.44167 13.4165 9.31667 13.3665 9.2 13.2998C8.46667 12.8998 7.70833 12.5998 6.925 12.3998C6.14167 12.1998 5.33333 12.0998 4.5 12.0998C3.98333 12.0998 3.475 12.1415 2.975 12.2248C2.475 12.3081 1.98333 12.4498 1.5 12.6498C1.13333 12.7831 0.791667 12.7331 0.475 12.4998C0.158333 12.2665 5.96046e-08 11.9498 5.96046e-08 11.5498V1.8748C5.96046e-08 1.6248 0.0666667 1.3998 0.2 1.1998C0.333333 0.983137 0.516667 0.833137 0.75 0.749804C1.33333 0.483137 1.94167 0.291471 2.575 0.174804C3.20833 0.0581369 3.85 -0.000196457 4.5 -0.000196457C5.48333 -0.000196457 6.44167 0.14147 7.375 0.424804C8.30833 0.708137 9.18333 1.1248 10 1.6748C10.8167 1.1248 11.6917 0.708137 12.625 0.424804C13.5583 0.14147 14.5167 -0.000196457 15.5 -0.000196457C16.15 -0.000196457 16.7917 0.0581369 17.425 0.174804C18.0583 0.291471 18.6667 0.483137 19.25 0.749804C19.4833 0.833137 19.6667 0.983137 19.8 1.1998C19.9333 1.3998 20 1.6248 20 1.8748V11.5498C20 11.9498 19.825 12.2665 19.475 12.4998C19.1417 12.7165 18.775 12.7498 18.375 12.5998C17.925 12.4165 17.4583 12.2915 16.975 12.2248C16.4917 12.1415 16 12.0998 15.5 12.0998C14.6667 12.0998 13.8583 12.1998 13.075 12.3998C12.2917 12.5998 11.5333 12.8998 10.8 13.2998C10.6833 13.3665 10.5583 13.4165 10.425 13.4498C10.2917 13.4831 10.15 13.4998 10 13.4998ZM4.5 11.0998C5.36667 11.0998 6.20833 11.1998 7.025 11.3998C7.85833 11.5998 8.68333 11.9248 9.5 12.3748V2.5498C8.78333 2.03314 7.98333 1.6498 7.1 1.3998C6.23333 1.13314 5.36667 0.999804 4.5 0.999804C3.9 0.999804 3.375 1.04147 2.925 1.1248C2.475 1.19147 1.975 1.3248 1.425 1.5248C1.275 1.5748 1.16667 1.6498 1.1 1.7498C1.03333 1.83314 1 1.93314 1 2.0498V11.0748C1 11.2581 1.05833 11.3915 1.175 11.4748C1.30833 11.5581 1.45833 11.5665 1.625 11.4998C1.99167 11.3665 2.40833 11.2665 2.875 11.1998C3.35833 11.1331 3.9 11.0998 4.5 11.0998ZM10.5 12.3748C11.3167 11.9248 12.1333 11.5998 12.95 11.3998C13.7833 11.1998 14.6333 11.0998 15.5 11.0998C16.1 11.0998 16.6333 11.1331 17.1 11.1998C17.5833 11.2665 18.0083 11.3665 18.375 11.4998C18.5417 11.5665 18.6833 11.5581 18.8 11.4748C18.9333 11.3915 19 11.2581 19 11.0748V2.0498C19 1.93314 18.9667 1.83314 18.9 1.7498C18.8333 1.66647 18.725 1.59147 18.575 1.5248C18.025 1.3248 17.525 1.19147 17.075 1.1248C16.625 1.04147 16.1 0.999804 15.5 0.999804C14.6333 0.999804 13.7583 1.13314 12.875 1.3998C12.0083 1.6498 11.2167 2.03314 10.5 2.5498V12.3748ZM11.875 9.4248C11.875 9.34147 11.9 9.26647 11.95 9.1998C12 9.11647 12.0667 9.0498 12.15 8.9998C12.6333 8.78314 13.1667 8.61647 13.75 8.4998C14.35 8.38314 14.9333 8.3248 15.5 8.3248C15.8167 8.3248 16.1167 8.34147 16.4 8.3748C16.7 8.40814 17 8.45814 17.3 8.5248C17.3833 8.54147 17.4583 8.59147 17.525 8.6748C17.5917 8.74147 17.625 8.8248 17.625 8.9248C17.625 9.09147 17.575 9.21647 17.475 9.2998C17.375 9.36647 17.2417 9.3748 17.075 9.3248C16.825 9.2748 16.5667 9.24147 16.3 9.2248C16.05 9.20814 15.7833 9.1998 15.5 9.1998C14.9833 9.1998 14.4667 9.25814 13.95 9.3748C13.45 9.4748 12.9667 9.6248 12.5 9.8248C12.3333 9.90814 12.1833 9.90814 12.05 9.8248C11.9333 9.74147 11.875 9.60814 11.875 9.4248ZM11.875 3.9998C11.875 3.93314 11.9 3.86647 11.95 3.7998C12 3.71647 12.0667 3.6498 12.15 3.5998C12.65 3.36647 13.1833 3.19147 13.75 3.0748C14.3167 2.95814 14.9 2.8998 15.5 2.8998C15.8167 2.8998 16.1167 2.91647 16.4 2.9498C16.7 2.98314 17 3.03314 17.3 3.0998C17.3833 3.11647 17.4583 3.16647 17.525 3.2498C17.5917 3.31647 17.625 3.3998 17.625 3.4998C17.625 3.66647 17.575 3.79147 17.475 3.8748C17.375 3.94147 17.2417 3.9498 17.075 3.8998C16.825 3.8498 16.5667 3.81647 16.3 3.7998C16.05 3.78314 15.7833 3.7748 15.5 3.7748C14.9667 3.7748 14.4417 3.83314 13.925 3.9498C13.4083 4.0498 12.925 4.19147 12.475 4.3748C12.2917 4.44147 12.1417 4.44147 12.025 4.3748C11.925 4.29147 11.875 4.16647 11.875 3.9998ZM11.875 6.7248C11.875 6.65814 11.9 6.59147 11.95 6.5248C12 6.44147 12.0667 6.38314 12.15 6.3498C12.65 6.11647 13.1833 5.94147 13.75 5.8248C14.3167 5.69147 14.9 5.6248 15.5 5.6248C15.8167 5.6248 16.1167 5.64147 16.4 5.6748C16.7 5.70814 17 5.75814 17.3 5.8248C17.3833 5.85814 17.4583 5.90814 17.525 5.9748C17.5917 6.04147 17.625 6.1248 17.625 6.2248C17.625 6.39147 17.575 6.51647 17.475 6.5998C17.375 6.66647 17.2417 6.68314 17.075 6.6498C16.825 6.5998 16.5667 6.56647 16.3 6.5498C16.05 6.51647 15.7833 6.4998 15.5 6.4998C14.9667 6.4998 14.4417 6.55814 13.925 6.6748C13.4083 6.7748 12.925 6.91647 12.475 7.0998C12.2917 7.16647 12.1417 7.16647 12.025 7.0998C11.925 7.01647 11.875 6.89147 11.875 6.7248Z" fill="black"/>
</svg>
