<svg width="19" height="17" viewBox="0 0 19 17" fill="none" xmlns="http://www.w3.org/2000/svg">
<path d="M1.625 16C1.15833 16 0.766667 15.85 0.45 15.55C0.15 15.2333 1.19209e-07 14.8417 1.19209e-07 14.375V1.625C1.19209e-07 1.15833 0.15 0.774999 0.45 0.474998C0.766667 0.158332 1.15833 -1.43051e-06 1.625 -1.43051e-06H14.375C14.8417 -1.43051e-06 15.225 0.158332 15.525 0.474998C15.8417 0.774999 16 1.15833 16 1.625V7.725C16 7.875 15.95 8 15.85 8.1C15.75 8.18333 15.6333 8.225 15.5 8.225C15.35 8.225 15.225 8.18333 15.125 8.1C15.0417 8 15 7.875 15 7.725V1.625C15 1.45833 14.9333 1.31667 14.8 1.2C14.6833 1.06667 14.5417 0.999999 14.375 0.999999H1.625C1.45833 0.999999 1.30833 1.06667 1.175 1.2C1.05833 1.31667 1 1.45833 1 1.625V14.375C1 14.5417 1.05833 14.6917 1.175 14.825C1.30833 14.9417 1.45833 15 1.625 15H4.15C4.3 15 4.41667 15.05 4.5 15.15C4.6 15.25 4.65 15.3667 4.65 15.5C4.65 15.65 4.6 15.775 4.5 15.875C4.41667 15.9583 4.3 16 4.15 16H1.625ZM10 17C9.16667 17 8.45833 16.7083 7.875 16.125C7.29167 15.5417 7 14.8333 7 14C7 13.1667 7.29167 12.4583 7.875 11.875C8.45833 11.2917 9.16667 11 10 11H11.3C11.45 11 11.5667 11.05 11.65 11.15C11.75 11.25 11.8 11.3667 11.8 11.5C11.8 11.65 11.75 11.775 11.65 11.875C11.5667 11.9583 11.45 12 11.3 12H10C9.45 12 8.975 12.2 8.575 12.6C8.19167 12.9833 8 13.45 8 14C8 14.55 8.19167 15.025 8.575 15.425C8.975 15.8083 9.45 16 10 16H11.3C11.45 16 11.5667 16.05 11.65 16.15C11.75 16.25 11.8 16.3667 11.8 16.5C11.8 16.65 11.75 16.775 11.65 16.875C11.5667 16.9583 11.45 17 11.3 17H10ZM16 17H14.7C14.55 17 14.425 16.95 14.325 16.85C14.2417 16.75 14.2 16.6333 14.2 16.5C14.2 16.35 14.2417 16.2333 14.325 16.15C14.425 16.05 14.55 16 14.7 16H16C16.55 16 17.0167 15.8083 17.4 15.425C17.8 15.025 18 14.55 18 14C18 13.45 17.8 12.9833 17.4 12.6C17.0167 12.2 16.55 12 16 12H14.7C14.55 12 14.425 11.95 14.325 11.85C14.2417 11.75 14.2 11.6333 14.2 11.5C14.2 11.35 14.2417 11.2333 14.325 11.15C14.425 11.05 14.55 11 14.7 11H16C16.8333 11 17.5417 11.2917 18.125 11.875C18.7083 12.4583 19 13.1667 19 14C19 14.8333 18.7083 15.5417 18.125 16.125C17.5417 16.7083 16.8333 17 16 17ZM3.5 4.3C3.5 4.08333 3.575 3.9 3.725 3.75C3.89167 3.58333 4.08333 3.5 4.3 3.5H5.7C5.91667 3.5 6.1 3.58333 6.25 3.75C6.41667 3.9 6.5 4.08333 6.5 4.3V5.7C6.5 5.91667 6.41667 6.10833 6.25 6.275C6.1 6.425 5.91667 6.5 5.7 6.5H4.3C4.08333 6.5 3.89167 6.425 3.725 6.275C3.575 6.10833 3.5 5.91667 3.5 5.7V4.3ZM10.3 6.5C10.0833 6.5 9.89167 6.425 9.725 6.275C9.575 6.10833 9.5 5.91667 9.5 5.7V4.3C9.5 4.08333 9.575 3.9 9.725 3.75C9.89167 3.58333 10.0833 3.5 10.3 3.5H11.7C11.9167 3.5 12.1 3.58333 12.25 3.75C12.4167 3.9 12.5 4.08333 12.5 4.3V5.7C12.5 5.91667 12.4167 6.10833 12.25 6.275C12.1 6.425 11.9167 6.5 11.7 6.5H10.3ZM10.5 14.5C10.3667 14.5 10.25 14.45 10.15 14.35C10.05 14.25 10 14.1333 10 14C10 13.85 10.05 13.7333 10.15 13.65C10.25 13.55 10.3667 13.5 10.5 13.5H15.5C15.6333 13.5 15.75 13.55 15.85 13.65C15.95 13.75 16 13.8667 16 14C16 14.15 15.95 14.275 15.85 14.375C15.75 14.4583 15.6333 14.5 15.5 14.5H10.5ZM3.5 10.3C3.5 10.0833 3.575 9.9 3.725 9.75C3.875 9.58333 4.06667 9.5 4.3 9.5H6.45C6 9.88333 5.60833 10.3333 5.275 10.85C4.95833 11.35 4.71667 11.9 4.55 12.5H4.3C4.08333 12.5 3.89167 12.425 3.725 12.275C3.575 12.1083 3.5 11.9167 3.5 11.7V10.3Z" fill="black"/>
</svg>
