<svg width="35" height="35" viewBox="0 0 35 35" fill="none" xmlns="http://www.w3.org/2000/svg">
<g clip-path="url(#clip0_9047_1036)">
<path d="M27.4534 3.19629H12.0394V9.58832H30.7454V6.48702C30.7454 4.67234 29.2686 3.19629 27.4534 3.19629Z" fill="#FFB694"/>
<path d="M18.7281 10.5724H0.699951V4.64128C0.699951 2.46797 2.46849 0.700195 4.64258 0.700195H10.4068C10.9797 0.700195 11.5317 0.820935 12.0331 1.0478C12.7334 1.36337 13.3351 1.8835 13.757 2.56307L18.7281 10.5724Z" fill="#F16508"/>
<path d="M34.3 11.9001V31.0052C34.3 32.8222 32.8208 34.3 31.0031 34.3H3.99684C2.17908 34.3 0.699951 32.8222 0.699951 31.0052V8.60449H31.0031C32.8208 8.60449 34.3 10.0828 34.3 11.9001Z" fill="#F16508"/>
<path d="M34.2999 11.9001V31.0052C34.2999 32.8222 32.8208 34.3 31.003 34.3H17.4999V8.60449H31.003C32.8208 8.60449 34.2999 10.0828 34.2999 11.9001Z" fill="#F16508"/>
<path d="M26.3382 21.4521C26.3382 26.3261 22.3733 30.2912 17.4999 30.2912C12.6264 30.2912 8.6615 26.3261 8.6615 21.4521C8.6615 16.579 12.6264 12.6138 17.4999 12.6138C22.3733 12.6138 26.3382 16.579 26.3382 21.4521Z" fill="#FFB694"/>
<path d="M26.3382 21.4521C26.3382 26.3261 22.3733 30.2912 17.4999 30.2912V12.6138C22.3733 12.6138 26.3382 16.579 26.3382 21.4521Z" fill="#FFB694"/>
<path d="M20.3487 21.5601C20.1644 21.7163 19.9385 21.7924 19.7147 21.7924C19.4345 21.7924 19.1561 21.6737 18.9613 21.4425L18.4843 20.877V24.5794C18.4843 25.1229 18.0433 25.5638 17.4999 25.5638C16.9564 25.5638 16.5155 25.1229 16.5155 24.5794V20.877L16.0384 21.4425C15.6872 21.858 15.0666 21.9111 14.6511 21.5601C14.2358 21.2097 14.1825 20.5888 14.5329 20.1733L16.4814 17.8634C16.7355 17.5629 17.1061 17.3901 17.4999 17.3901C17.8936 17.3901 18.2643 17.5629 18.5184 17.8634L20.4669 20.1733C20.8173 20.5888 20.764 21.2097 20.3487 21.5601Z" fill="#F16508"/>
<path d="M20.3487 21.5601C20.1644 21.7163 19.9385 21.7924 19.7147 21.7924C19.4345 21.7924 19.1561 21.6737 18.9613 21.4425L18.4843 20.877V24.5794C18.4843 25.1229 18.0433 25.5638 17.4999 25.5638V17.3901C17.8936 17.3901 18.2643 17.5629 18.5183 17.8634L20.4668 20.1733C20.8173 20.5888 20.764 21.2097 20.3487 21.5601Z" fill="#F16508"/>
</g>
<defs>
<clipPath id="clip0_9047_1036">
<rect width="33.6" height="33.6" fill="white" transform="translate(0.699951 0.700195)"/>
</clipPath>
</defs>
</svg>
