<svg width="37" height="37" viewBox="0 0 37 37" fill="none" xmlns="http://www.w3.org/2000/svg">
<circle cx="18.5" cy="18.5" r="18.5" fill="#F16508"/>
<rect width="24" height="24" transform="translate(6 7)" fill="#F16508"/>
<path d="M17.5 13.925L12.05 19.35C11.9667 19.45 11.8583 19.5083 11.725 19.525C11.5917 19.525 11.4667 19.4667 11.35 19.35C11.25 19.25 11.2 19.1333 11.2 19C11.2 18.8667 11.25 18.75 11.35 18.65L17.425 12.575C17.525 12.475 17.6167 12.4083 17.7 12.375C17.8 12.3417 17.9 12.325 18 12.325C18.1 12.325 18.1917 12.3417 18.275 12.375C18.375 12.4083 18.475 12.475 18.575 12.575L24.65 18.65C24.7333 18.7333 24.775 18.85 24.775 19C24.7917 19.1333 24.75 19.25 24.65 19.35C24.5333 19.4667 24.4083 19.525 24.275 19.525C24.1583 19.525 24.0417 19.4667 23.925 19.35L18.5 13.925V25.5C18.5 25.65 18.45 25.775 18.35 25.875C18.2667 25.9583 18.15 26 18 26C17.85 26 17.725 25.9583 17.625 25.875C17.5417 25.775 17.5 25.65 17.5 25.5V13.925Z" fill="white"/>
</svg>
