<svg width="17" height="17" viewBox="0 0 17 17" fill="none" xmlns="http://www.w3.org/2000/svg">
<path d="M12.775 7.5C12.975 7.38333 13.075 7.21667 13.075 7C13.075 6.78333 12.975 6.61667 12.775 6.5L8.95 4.025C8.75 3.875 8.54167 3.85833 8.325 3.975C8.10833 4.09167 8 4.275 8 4.525V9.475C8 9.725 8.10833 9.90833 8.325 10.025C8.54167 10.1417 8.75 10.125 8.95 9.975L12.775 7.5ZM4.625 14C4.15833 14 3.76667 13.85 3.45 13.55C3.15 13.2333 3 12.8417 3 12.375V1.625C3 1.15833 3.15 0.774999 3.45 0.474998C3.76667 0.158332 4.15833 -1.43051e-06 4.625 -1.43051e-06H15.375C15.8417 -1.43051e-06 16.225 0.158332 16.525 0.474998C16.8417 0.774999 17 1.15833 17 1.625V12.375C17 12.8417 16.8417 13.2333 16.525 13.55C16.225 13.85 15.8417 14 15.375 14H4.625ZM4.625 13H15.375C15.5417 13 15.6833 12.9417 15.8 12.825C15.9333 12.6917 16 12.5417 16 12.375V1.625C16 1.45833 15.9333 1.31667 15.8 1.2C15.6833 1.06667 15.5417 0.999999 15.375 0.999999H4.625C4.45833 0.999999 4.30833 1.06667 4.175 1.2C4.05833 1.31667 4 1.45833 4 1.625V12.375C4 12.5417 4.05833 12.6917 4.175 12.825C4.30833 12.9417 4.45833 13 4.625 13ZM1.625 17C1.15833 17 0.766667 16.85 0.45 16.55C0.15 16.2333 2.38419e-07 15.8417 2.38419e-07 15.375V4.125C2.38419e-07 3.975 0.0416669 3.85833 0.125 3.775C0.225 3.675 0.35 3.625 0.5 3.625C0.65 3.625 0.766667 3.675 0.85 3.775C0.95 3.85833 1 3.975 1 4.125V15.375C1 15.5417 1.05833 15.6917 1.175 15.825C1.30833 15.9417 1.45833 16 1.625 16H12.875C13.025 16 13.1417 16.05 13.225 16.15C13.325 16.2333 13.375 16.35 13.375 16.5C13.375 16.65 13.325 16.775 13.225 16.875C13.1417 16.9583 13.025 17 12.875 17H1.625ZM4 0.999999C4 0.999999 4 1.05833 4 1.175C4 1.29167 4 1.44167 4 1.625V12.375C4 12.5583 4 12.7083 4 12.825C4 12.9417 4 13 4 13C4 13 4 12.9417 4 12.825C4 12.7083 4 12.5583 4 12.375V1.625C4 1.44167 4 1.29167 4 1.175C4 1.05833 4 0.999999 4 0.999999Z" fill="white"/>
</svg>
